<svg width="692" height="50" viewBox="0 0 692 50" fill="none" xmlns="http://www.w3.org/2000/svg">
<g clip-path="url(#clip0_1_15)">
<path d="M7.04372 4.88524H0V1.00391H18.4727V4.88524H11.4176V38.7911H7.04372V4.88524Z" fill="white"/>
<path d="M35.7525 25.2063C35.7525 35.7015 30.7878 39.2371 26.5616 39.2371C21.6197 39.2371 17.5752 34.7981 17.5752 25.2732C17.5752 15.7483 22.0968 11.2424 26.857 11.2424C31.6172 11.2424 35.7525 15.7818 35.7525 25.2063ZM22.0059 25.2286C22.0059 29.7234 22.8239 35.8019 26.7775 35.8019C30.731 35.8019 31.3332 29.4668 31.3332 25.2286C31.3332 20.9904 30.5606 14.6888 26.6639 14.6888C22.7671 14.6888 22.0059 21.0796 22.0059 25.2286Z" fill="white"/>
<path d="M57.4744 11.6775C57.3835 13.5401 57.2245 15.9603 57.2245 20.1205V35.2778C57.2245 42.427 56.3043 45.1372 54.4865 47.1002C52.8165 48.9405 50.2149 49.9889 47.1361 49.9889C44.773 49.9889 42.5122 49.4424 41.0467 48.6617L42.0691 45.2599C43.1711 45.8176 45.0002 46.4645 47.2156 46.4645C50.7034 46.4645 52.8506 44.3119 52.8506 38.1665V35.4228H52.737C51.8054 37.5419 49.7831 38.713 47.4655 38.713C42.569 38.713 39.3425 33.3036 39.3425 25.3291C39.3425 15.3358 43.955 11.2202 48.0449 11.2202C50.9647 11.2202 52.3393 13.1163 53.18 14.7112H53.2936L53.5095 11.6663H57.4517L57.4744 11.6775ZM52.8619 21.0128C52.8619 20.3213 52.8165 19.6186 52.6347 19.0386C52.1462 17.1984 51.1464 14.9119 48.6471 14.9119C45.4774 14.9119 43.7505 19.1167 43.7505 25.1283C43.7505 32.0656 45.9659 35.2108 48.6243 35.2108C49.9876 35.2108 51.6918 34.6086 52.5665 31.3295C52.8165 30.4707 52.8506 29.6454 52.8506 28.8758V21.0128H52.8619Z" fill="white"/>
<path d="M66.3246 25.6077C66.3586 33.9281 69.6874 35.6791 72.857 35.6791C74.7657 35.6791 76.3448 35.233 77.4355 34.6642L78.1626 37.8094C76.6288 38.657 74.2658 39.1255 72.0618 39.1255C65.4498 39.1255 62.0188 33.8165 62.0188 25.5185C62.0188 16.7298 65.8247 11.2312 71.3347 11.2312C76.8447 11.2312 79.2418 17.0643 79.2418 23.1763C79.2418 24.2359 79.2077 24.9608 79.1509 25.6077H66.3359H66.3246ZM75.0042 22.4291C75.0838 16.9974 72.9934 14.5883 70.903 14.5883C67.9946 14.5883 66.5631 18.7039 66.3586 22.4291H75.0042Z" fill="white"/>
<path d="M89.2167 4.46118V11.6773H94.5109V14.9452H89.2167V31.0617C89.2167 34.5972 90.5119 35.523 92.091 35.523C92.7954 35.523 93.3634 35.4672 93.8633 35.3557L94.0678 38.6905C93.2839 38.9693 92.2614 39.1143 90.8072 39.1143C89.069 39.1143 87.524 38.6459 86.4788 37.4748C85.3654 36.2368 84.8314 34.4299 84.8314 30.6713V14.9564H81.4573V11.6885H84.8314V5.7215L89.2054 4.46118H89.2167Z" fill="white"/>
<path d="M98.2712 0H102.645V14.5773H102.759C103.361 13.6293 104.202 12.7816 105.099 12.2016C106.099 11.5882 107.212 11.2313 108.769 11.2313C112.279 11.2313 115.233 13.9416 115.233 20.8008V38.791H110.859V21.3027C110.859 17.9679 110.098 14.8784 107.121 14.8784C105.088 14.8784 103.509 16.3284 102.838 19.1947C102.725 19.7859 102.657 20.5777 102.657 21.2246V38.7798H98.2826V0H98.2712Z" fill="white"/>
<path d="M124.379 25.6077C124.413 33.9281 127.741 35.6791 130.911 35.6791C132.82 35.6791 134.399 35.233 135.489 34.6642L136.217 37.8094C134.683 38.657 132.32 39.1255 130.116 39.1255C123.504 39.1255 120.073 33.8165 120.073 25.5185C120.073 16.7298 123.879 11.2312 129.389 11.2312C134.899 11.2312 137.296 17.0643 137.296 23.1763C137.296 24.2359 137.262 24.9608 137.205 25.6077H124.39H124.379ZM133.058 22.4291C133.138 16.9974 131.047 14.5883 128.957 14.5883C126.049 14.5883 124.617 18.7039 124.413 22.4291H133.058Z" fill="white"/>
<path d="M141.851 18.6816C141.851 16.3952 141.692 13.7073 141.624 11.6886H145.544L145.76 15.9268H145.907C146.793 13.3504 149.145 11.2424 151.69 11.2424C152.088 11.2424 152.338 11.2647 152.622 11.2982V15.7037C152.372 15.6703 152.076 15.6703 151.713 15.6703C148.929 15.6703 146.839 18.1909 146.384 21.3138C146.282 22.0276 146.225 22.8641 146.225 23.7787V38.8021H141.851V18.6816Z" fill="white"/>
<path d="M168.265 38.791L160.881 1.00383H165.402L168.652 19.2282C169.492 23.9684 170.083 28.2177 170.572 32.8575H170.765C171.253 28.0616 172.139 23.9907 173.071 19.1502L176.627 1.00383H180.353L183.898 18.7933C184.761 23.2546 185.613 27.5597 186.147 32.8463H186.306C186.943 27.3924 187.624 23.2769 188.34 18.9829L191.532 0.992676H195.838L188.351 38.7687H184.057L180.365 20.3993C179.592 16.3842 178.876 12.1459 178.411 7.99691H178.297C177.752 12.2686 177.081 16.3395 176.184 20.5555L172.367 38.7687H168.243L168.265 38.791Z" fill="white"/>
<path d="M201.007 25.6077C201.041 33.9281 204.37 35.6791 207.54 35.6791C209.449 35.6791 211.028 35.233 212.118 34.6642L212.845 37.8094C211.312 38.657 208.949 39.1255 206.745 39.1255C200.133 39.1255 196.702 33.8165 196.702 25.5185C196.702 16.7298 200.508 11.2312 206.018 11.2312C211.528 11.2312 213.925 17.0643 213.925 23.1763C213.925 24.2359 213.891 24.9608 213.834 25.6077H201.019H201.007ZM209.687 22.4291C209.767 16.9974 207.676 14.5883 205.586 14.5883C202.677 14.5883 201.246 18.7039 201.042 22.4291H209.687Z" fill="white"/>
<path d="M246.655 37.8206C245.042 38.5121 242.247 39.1256 239.839 39.1256C236.465 39.1256 233.318 38.211 230.727 35.445C227.944 32.534 226.069 27.3254 226.103 20.3993C226.172 5.68815 233.84 0.669189 240.6 0.669189C243.02 0.669189 244.906 1.12647 246.11 1.72875L245.122 5.46509C244.099 4.94088 242.736 4.55052 240.679 4.55052C235.885 4.55052 230.671 8.33147 230.671 20.0201C230.671 31.7087 235.181 35.4115 239.827 35.4115C241.293 35.4115 242.145 35.1773 242.52 34.9877V22.6411H237.567V19.072H246.655V37.8318V37.8206Z" fill="white"/>
<path d="M263.356 38.7909L263.06 35.9245H262.901C261.686 38.0101 259.754 39.2482 257.369 39.2482C253.676 39.2482 250.825 36.1922 250.825 31.4966C250.825 24.7266 256.357 21.7264 262.617 21.6706V20.8118C262.617 17.1424 261.663 14.6329 258.187 14.6329C256.494 14.6329 254.926 15.1683 253.619 16.0383L252.677 13.0046C253.835 12.1904 256.369 11.2312 259.129 11.2312C264.662 11.2312 267.025 14.7779 267.025 20.8899V32.6566C267.025 34.6976 267.059 37.0398 267.321 38.7909H263.356ZM262.697 24.7489C260.447 24.7712 255.108 25.1839 255.108 31.084C255.108 34.6084 256.937 35.8576 258.505 35.8576C260.413 35.8576 262.049 34.4411 262.572 31.7978C262.685 31.2847 262.708 30.7382 262.708 30.2475V24.7489H262.697Z" fill="white"/>
<path d="M277.966 4.46118V11.6773H283.26V14.9452H277.966V31.0617C277.966 34.5972 279.261 35.523 280.84 35.523C281.544 35.523 282.112 35.4672 282.612 35.3557L282.817 38.6905C282.033 38.9693 281.01 39.1143 279.556 39.1143C277.818 39.1143 276.273 38.6459 275.228 37.4748C274.114 36.2368 273.58 34.4299 273.58 30.6713V14.9564H270.206V11.6885H273.58V5.7215L277.954 4.46118H277.966Z" fill="white"/>
<path d="M287.031 0H291.405V14.5773H291.519C292.121 13.6293 292.962 12.7816 293.859 12.2016C294.859 11.5882 295.972 11.2313 297.529 11.2313C301.039 11.2313 303.993 13.9416 303.993 20.8008V38.791H299.619V21.3027C299.619 17.9679 298.858 14.8784 295.882 14.8784C293.848 14.8784 292.269 16.3284 291.599 19.1947C291.485 19.7859 291.417 20.5777 291.417 21.2246V38.7798H287.043V0H287.031Z" fill="white"/>
<path d="M313.139 25.6077C313.173 33.9281 316.502 35.6791 319.671 35.6791C321.58 35.6791 323.159 35.233 324.25 34.6642L324.977 37.8094C323.443 38.657 321.08 39.1255 318.876 39.1255C312.264 39.1255 308.833 33.8165 308.833 25.5185C308.833 16.7298 312.639 11.2312 318.149 11.2312C323.659 11.2312 326.056 17.0643 326.056 23.1763C326.056 24.2359 326.022 24.9608 325.965 25.6077H313.15H313.139ZM321.818 22.4291C321.898 16.9974 319.808 14.5883 317.717 14.5883C314.809 14.5883 313.377 18.7039 313.173 22.4291H321.818Z" fill="white"/>
<path d="M330.612 18.6816C330.612 16.3952 330.453 13.7073 330.385 11.6886H334.304L334.52 15.9268H334.668C335.554 13.3504 337.905 11.2424 340.45 11.2424C340.848 11.2424 341.098 11.2647 341.382 11.2982V15.7037C341.132 15.6703 340.836 15.6703 340.473 15.6703C337.69 15.6703 335.599 18.1909 335.145 21.3138C335.042 22.0276 334.986 22.8641 334.986 23.7787V38.8021H330.612V18.6816Z" fill="white"/>
<path d="M364.172 17.5441C364.172 19.2282 363.206 20.7897 361.036 20.7897C358.866 20.7897 357.889 19.2171 357.889 17.5441C357.889 15.8711 358.855 14.3542 361.036 14.3542C363.217 14.3542 364.172 15.8711 364.172 17.5441Z" fill="white"/>
<path d="M383.69 4.88524H376.646V1.00391H395.119V4.88524H388.064V38.7911H383.69V4.88524Z" fill="white"/>
<path d="M412.41 25.2063C412.41 35.7015 407.445 39.2371 403.219 39.2371C398.277 39.2371 394.232 34.7981 394.232 25.2732C394.232 15.7483 398.754 11.2424 403.514 11.2424C408.274 11.2424 412.41 15.7818 412.41 25.2063ZM398.663 25.2286C398.663 29.7234 399.481 35.8019 403.435 35.8019C407.388 35.8019 407.99 29.4668 407.99 25.2286C407.99 20.9904 407.218 14.6888 403.321 14.6888C399.424 14.6888 398.663 21.0796 398.663 25.2286Z" fill="white"/>
<path d="M434.12 11.6775C434.03 13.5401 433.87 15.9603 433.87 20.1205V35.2778C433.87 42.427 432.95 45.1372 431.133 47.1002C429.462 48.9405 426.861 49.9889 423.782 49.9889C421.419 49.9889 419.158 49.4424 417.693 48.6617L418.715 45.2599C419.817 45.8176 421.646 46.4645 423.862 46.4645C427.349 46.4645 429.497 44.3119 429.497 38.1665V35.4228H429.383C428.451 37.5419 426.429 38.713 424.112 38.713C419.215 38.713 415.989 33.3036 415.989 25.3291C415.989 15.3358 420.601 11.2202 424.702 11.2202C427.622 11.2202 428.997 13.1163 429.837 14.7112H429.951L430.167 11.6663H434.109L434.12 11.6775ZM429.508 21.0128C429.508 20.3213 429.451 19.6186 429.281 19.0386C428.792 17.1984 427.792 14.9119 425.293 14.9119C422.123 14.9119 420.397 19.1167 420.397 25.1283C420.397 32.0656 422.612 35.2108 425.282 35.2108C426.645 35.2108 428.349 34.6086 429.224 31.3295C429.474 30.4707 429.508 29.6454 429.508 28.8758V21.0128Z" fill="white"/>
<path d="M442.97 25.6077C443.004 33.9281 446.333 35.6791 449.503 35.6791C451.411 35.6791 452.991 35.233 454.081 34.6642L454.808 37.8094C453.275 38.657 450.912 39.1255 448.708 39.1255C442.096 39.1255 438.665 33.8165 438.665 25.5185C438.665 16.7298 442.47 11.2312 447.98 11.2312C453.49 11.2312 455.888 17.0643 455.888 23.1763C455.888 24.2359 455.854 24.9608 455.797 25.6077H442.982H442.97ZM451.65 22.4291C451.73 16.9974 449.639 14.5883 447.549 14.5883C444.64 14.5883 443.209 18.7039 443.004 22.4291H451.65Z" fill="white"/>
<path d="M465.862 4.46118V11.6773H471.157V14.9452H465.862V31.0617C465.862 34.5972 467.158 35.523 468.737 35.523C469.441 35.523 470.009 35.4672 470.509 35.3557L470.714 38.6905C469.93 38.9693 468.907 39.1143 467.453 39.1143C465.715 39.1143 464.17 38.6459 463.124 37.4748C462.011 36.2368 461.477 34.4299 461.477 30.6713V14.9564H458.103V11.6885H461.477V5.7215L465.851 4.46118H465.862Z" fill="white"/>
<path d="M474.928 0H479.302V14.5773H479.416C480.018 13.6293 480.859 12.7816 481.756 12.2016C482.756 11.5882 483.869 11.2313 485.426 11.2313C488.936 11.2313 491.89 13.9416 491.89 20.8008V38.791H487.516V21.3027C487.516 17.9679 486.755 14.8784 483.779 14.8784C481.745 14.8784 480.177 16.3284 479.496 19.1947C479.382 19.7859 479.314 20.5777 479.314 21.2246V38.7798H474.94V0H474.928Z" fill="white"/>
<path d="M501.036 25.6077C501.07 33.9281 504.399 35.6791 507.568 35.6791C509.477 35.6791 511.056 35.233 512.147 34.6642L512.874 37.8094C511.34 38.657 508.977 39.1255 506.773 39.1255C500.161 39.1255 496.73 33.8165 496.73 25.5185C496.73 16.7298 500.536 11.2312 506.046 11.2312C511.556 11.2312 513.953 17.0643 513.953 23.1763C513.953 24.2359 513.919 24.9608 513.862 25.6077H501.047H501.036ZM509.715 22.4291C509.795 16.9974 507.705 14.5883 505.614 14.5883C502.706 14.5883 501.274 18.7039 501.07 22.4291H509.715Z" fill="white"/>
<path d="M518.509 18.6816C518.509 16.3952 518.35 13.7073 518.281 11.6886H522.201L522.417 15.9268H522.565C523.451 13.3504 525.802 11.2424 528.347 11.2424C528.745 11.2424 528.995 11.2647 529.267 11.2982V15.7037C529.017 15.6703 528.722 15.6703 528.37 15.6703C525.586 15.6703 523.496 18.1909 523.042 21.3138C522.928 22.0276 522.883 22.8641 522.883 23.7787V38.8021H518.509V18.6816Z" fill="white"/>
<path d="M544.911 38.791L537.538 1.00383H542.06L545.309 19.2282C546.15 23.9684 546.729 28.2177 547.229 32.8575H547.422C547.911 28.0616 548.797 23.9907 549.728 19.1502L553.284 1.00383H557.011L560.555 18.7933C561.419 23.2546 562.271 27.5597 562.805 32.8463H562.964C563.6 27.3924 564.282 23.2769 564.997 18.9829L568.19 0.992676H572.507L565.02 38.7687H560.726L557.033 20.3993C556.261 16.3842 555.545 12.1459 555.079 7.99691H554.966C554.42 12.2686 553.75 16.3395 552.853 20.5555L549.047 38.7687H544.923L544.911 38.791Z" fill="white"/>
<path d="M577.653 25.6077C577.687 33.9281 581.016 35.6791 584.186 35.6791C586.094 35.6791 587.673 35.233 588.764 34.6642L589.491 37.8094C587.957 38.657 585.594 39.1255 583.39 39.1255C576.778 39.1255 573.347 33.8165 573.347 25.5185C573.347 16.7298 577.153 11.2312 582.663 11.2312C588.173 11.2312 590.57 17.0643 590.57 23.1763C590.57 24.2359 590.536 24.9608 590.48 25.6077H577.665H577.653ZM586.333 22.4291C586.412 16.9974 584.322 14.5883 582.232 14.5883C579.323 14.5883 577.892 18.7039 577.687 22.4291H586.333Z" fill="white"/>
<path d="M623.301 37.8206C621.688 38.5121 618.893 39.1256 616.485 39.1256C613.11 39.1256 609.963 38.211 607.373 35.445C604.59 32.534 602.715 27.3254 602.749 20.3993C602.817 5.68815 610.486 0.669189 617.246 0.669189C619.666 0.669189 621.551 1.12647 622.756 1.72875L621.767 5.46509C620.745 4.94088 619.382 4.55052 617.325 4.55052C612.531 4.55052 607.316 8.33147 607.316 20.0201C607.316 31.7087 611.827 35.4115 616.473 35.4115C617.927 35.4115 618.791 35.1773 619.166 34.9877V22.6411H614.212V19.072H623.301V37.8318V37.8206Z" fill="white"/>
<path d="M628.925 18.6816C628.925 16.3952 628.766 13.7073 628.698 11.6886H632.617L632.833 15.9268H632.98C633.867 13.3504 636.218 11.2424 638.763 11.2424C639.161 11.2424 639.411 11.2647 639.695 11.2982V15.7037C639.445 15.6703 639.149 15.6703 638.786 15.6703C636.003 15.6703 633.912 18.1909 633.458 21.3138C633.355 22.0276 633.299 22.8641 633.299 23.7787V38.8021H628.925V18.6816Z" fill="white"/>
<path d="M659.167 25.2063C659.167 35.7015 654.202 39.2371 649.976 39.2371C645.034 39.2371 640.99 34.7981 640.99 25.2732C640.99 15.7483 645.511 11.2424 650.272 11.2424C655.032 11.2424 659.167 15.7818 659.167 25.2063ZM645.42 25.2286C645.42 29.7234 646.238 35.8019 650.192 35.8019C654.146 35.8019 654.748 29.4668 654.748 25.2286C654.748 20.9904 653.975 14.6888 650.078 14.6888C646.182 14.6888 645.42 21.0796 645.42 25.2286Z" fill="white"/>
<path d="M665.802 11.6775L668.449 24.9275C669.017 27.8385 669.619 30.783 669.949 33.5825H670.165C670.608 30.783 671.278 27.6378 671.914 25.0391L675.084 11.6775H678.481L681.491 24.6599C682.184 27.6824 682.798 30.5488 683.286 33.5825H683.479C683.809 30.7272 684.354 27.9278 684.979 24.816L687.615 11.6775H692L685.047 38.7799H681.446L678.254 25.6302C677.583 22.9646 677.174 20.5778 676.72 17.4772H676.606C676.14 20.6893 675.595 23.2099 674.97 25.7863L671.698 38.7799H667.972L661.224 11.6775H665.813H665.802Z" fill="white"/>
</g>
<defs>
<clipPath id="clip0_1_15">
<rect width="692" height="50" fill="white"/>
</clipPath>
</defs>
</svg>
